<svg xmlns="http://www.w3.org/2000/svg" xmlns:xlink="http://www.w3.org/1999/xlink" version="1.1" x="0px" y="0px" viewBox="0 0 50 62.5" enable-background="new 0 0 50 50" xml:space="preserve"><g><path d="M37.568,22.102c-0.553,0-1,0.447-1,1v17h-28v-25h19c0.552,0,1-0.447,1-1s-0.448-1-1-1h-20c-0.553,0-1,0.447-1,1v27   c0,0.553,0.447,1,1,1h30c0.552,0,1-0.447,1-1v-18C38.568,22.549,38.12,22.102,37.568,22.102z"/><path d="M43.286,11.612l-3.57-3.567c-0.195-0.195-0.512-0.195-0.707,0L25.328,21.726c-0.056,0.056-0.091,0.121-0.115,0.19   c-0.002,0.006-0.008,0.01-0.01,0.016l-1.585,5.154c-0.055,0.178-0.006,0.369,0.125,0.5c0.095,0.097,0.223,0.146,0.354,0.146   c0.049,0,0.1-0.007,0.147-0.021l5.153-1.586c0.007-0.002,0.011-0.008,0.017-0.01c0.069-0.023,0.137-0.061,0.189-0.113   l13.683-13.683c0.094-0.094,0.146-0.221,0.146-0.354C43.432,11.832,43.38,11.705,43.286,11.612z M24.852,26.477l1.064-3.458   l1.197,1.198l1.196,1.197L24.852,26.477z M29.251,24.94L27.82,23.51l-1.432-1.432L39.363,9.104l2.862,2.861L29.251,24.94z"/></g><text x="0" y="65" fill="#000000" font-size="5px" font-weight="bold" font-family="'Helvetica Neue', Helvetica, Arial-Unicode, Arial, Sans-serif">Created by Luboš Volkov</text><text x="0" y="70" fill="#000000" font-size="5px" font-weight="bold" font-family="'Helvetica Neue', Helvetica, Arial-Unicode, Arial, Sans-serif">from the Noun Project</text></svg>