<svg xmlns="http://www.w3.org/2000/svg" xmlns:xlink="http://www.w3.org/1999/xlink" version="1.1" x="0px" y="0px" viewBox="0 0 60 75" enable-background="new 0 0 60 60" xml:space="preserve"><path d="M55.6367188,53.7890625L39.159668,34.5859375c6.4111328-7.4423828,6.6259766-18.6699219,0.0380859-26.3486328  c-7.2626953-8.4638672-20.0576172-9.4414063-28.5214844-2.1787109c-8.4638672,7.2617188-9.4414063,20.0566406-2.1791992,28.5205078  c6.5878906,7.6787109,17.7172852,9.171875,26.0478516,3.9667969l16.4770508,19.203125  c1.09375,1.2744141,3.0126953,1.4208984,4.2871094,0.3271484C56.5830078,56.9824219,56.7304688,55.0634766,55.6367188,53.7890625z   M33.0585938,32.1445313c-5.9204102,5.078125-14.8681641,4.3955078-19.9467773-1.5244141  c-5.0791016-5.9189453-4.3955078-14.8691406,1.5239258-19.9472656c5.9194336-5.0791016,14.8681641-4.3945313,19.9467773,1.5244141  C39.6621094,18.1171875,38.9780273,27.0654297,33.0585938,32.1445313z"/><text x="0" y="75" fill="#000000" font-size="5px" font-weight="bold" font-family="'Helvetica Neue', Helvetica, Arial-Unicode, Arial, Sans-serif">Created by giovanni ataraska</text><text x="0" y="80" fill="#000000" font-size="5px" font-weight="bold" font-family="'Helvetica Neue', Helvetica, Arial-Unicode, Arial, Sans-serif">from the Noun Project</text></svg>